<svg width="40" height="40" viewBox="0 0 40 40" fill="none" xmlns="http://www.w3.org/2000/svg">
<path d="M13.409 14.642C15.719 14.533 18.028 14.42 20.339 14.338C21.412 14.3 22.485 14.267 23.558 14.253C24.583 14.24 25.693 14.106 26.656 14.539C29.959 16.026 28.566 22.001 26.283 23.775C24.692 25.011 22.148 25.103 20.217 25.053C18.425 25.008 16.263 24.803 14.755 23.729C12.156 21.878 13.514 16.834 13.429 13.385C13.48 11.455 11.385 11.142 11.385 11.142" stroke="black" stroke-width="1.5" stroke-linecap="round" stroke-linejoin="round"/>
<path d="M20.885 18.142H23.658" stroke="black" stroke-width="1.5" stroke-linecap="round" stroke-linejoin="round"/>
<path fill-rule="evenodd" clip-rule="evenodd" d="M15.149 27.7689C15.449 27.7689 15.693 28.0129 15.693 28.3129C15.693 28.6139 15.449 28.8579 15.149 28.8579C14.848 28.8579 14.604 28.6139 14.604 28.3129C14.604 28.0129 14.848 27.7689 15.149 27.7689Z" fill="black"/>
<path fill-rule="evenodd" clip-rule="evenodd" d="M15.149 27.7689C15.449 27.7689 15.693 28.0129 15.693 28.3129C15.693 28.6139 15.449 28.8579 15.149 28.8579C14.848 28.8579 14.604 28.6139 14.604 28.3129C14.604 28.0129 14.848 27.7689 15.149 27.7689Z" stroke="black" stroke-width="1.5" stroke-linecap="round" stroke-linejoin="round"/>
<path fill-rule="evenodd" clip-rule="evenodd" d="M25.48 27.7689C25.781 27.7689 26.025 28.0129 26.025 28.3129C26.025 28.6139 25.781 28.8579 25.48 28.8579C25.18 28.8579 24.936 28.6139 24.936 28.3129C24.936 28.0129 25.18 27.7689 25.48 27.7689Z" fill="black"/>
<path fill-rule="evenodd" clip-rule="evenodd" d="M25.48 27.7689C25.781 27.7689 26.025 28.0129 26.025 28.3129C26.025 28.6139 25.781 28.8579 25.48 28.8579C25.18 28.8579 24.936 28.6139 24.936 28.3129C24.936 28.0129 25.18 27.7689 25.48 27.7689Z" stroke="black" stroke-width="1.5" stroke-linecap="round" stroke-linejoin="round"/>
<circle cx="21" cy="14" r="3" fill="#DC1F21"/>
</svg>
