<svg width="16" height="16" viewBox="0 0 16 16" fill="none" xmlns="http://www.w3.org/2000/svg">
<path d="M3.60617 4.4281C5.14617 4.35543 6.6855 4.2801 8.22617 4.22543C8.9415 4.2001 9.65684 4.1781 10.3722 4.16876C11.0555 4.1601 11.7955 4.07076 12.4375 4.35943C14.6395 5.35076 13.7108 9.3341 12.1888 10.5168C11.1282 11.3408 9.43217 11.4021 8.14484 11.3688C6.95017 11.3388 5.50884 11.2021 4.5035 10.4861C2.77084 9.2521 3.67617 5.88943 3.6195 3.5901C3.6535 2.30343 2.25684 2.09476 2.25684 2.09476" stroke="#B9B9B9" stroke-linecap="round" stroke-linejoin="round"/>
<path d="M8.59009 6.76143H10.4388" stroke="#B9B9B9" stroke-linecap="round" stroke-linejoin="round"/>
<path fill-rule="evenodd" clip-rule="evenodd" d="M4.76617 13.1794C4.96617 13.1794 5.12883 13.3421 5.12883 13.5421C5.12883 13.7427 4.96617 13.9054 4.76617 13.9054C4.5655 13.9054 4.40283 13.7427 4.40283 13.5421C4.40283 13.3421 4.5655 13.1794 4.76617 13.1794Z" fill="#B9B9B9"/>
<path fill-rule="evenodd" clip-rule="evenodd" d="M4.76617 13.1794C4.96617 13.1794 5.12883 13.3421 5.12883 13.5421C5.12883 13.7427 4.96617 13.9054 4.76617 13.9054C4.5655 13.9054 4.40283 13.7427 4.40283 13.5421C4.40283 13.3421 4.5655 13.1794 4.76617 13.1794Z" stroke="#B9B9B9" stroke-linecap="round" stroke-linejoin="round"/>
<path fill-rule="evenodd" clip-rule="evenodd" d="M11.6534 13.1794C11.8541 13.1794 12.0168 13.3421 12.0168 13.5421C12.0168 13.7427 11.8541 13.9054 11.6534 13.9054C11.4534 13.9054 11.2908 13.7427 11.2908 13.5421C11.2908 13.3421 11.4534 13.1794 11.6534 13.1794Z" fill="#B9B9B9"/>
<path fill-rule="evenodd" clip-rule="evenodd" d="M11.6534 13.1794C11.8541 13.1794 12.0168 13.3421 12.0168 13.5421C12.0168 13.7427 11.8541 13.9054 11.6534 13.9054C11.4534 13.9054 11.2908 13.7427 11.2908 13.5421C11.2908 13.3421 11.4534 13.1794 11.6534 13.1794Z" stroke="#B9B9B9" stroke-linecap="round" stroke-linejoin="round"/>
</svg>
