<svg width="271" height="271" viewBox="0 0 271 271" fill="none" xmlns="http://www.w3.org/2000/svg">
<path fill-rule="evenodd" clip-rule="evenodd" d="M118.346 115.799C118.156 116.164 117.601 119.864 119.782 119.864C120.163 119.864 120.532 119.728 120.821 119.479C121.109 119.23 121.299 118.886 121.354 118.509C121.815 114.362 119.105 114.376 118.346 115.799ZM137.993 115.744C138.115 117.181 138.278 118.454 139.714 118.454C140.095 118.455 140.464 118.319 140.753 118.07C141.041 117.821 141.231 117.476 141.286 117.099C141.315 116.228 141.219 115.356 141.001 114.511C140.216 113.061 137.79 113.414 137.993 115.744ZM128.508 128.834C128.928 128.834 132.573 128.658 133.427 127.994C133.684 127.804 133.657 127.438 133.657 127.099C133.576 123.256 133.205 119.424 132.546 115.636C132.546 115.433 132.37 115.392 132.262 115.419C132.153 115.446 132.099 115.636 132.113 115.961C132.113 117.072 132.018 117.452 132.411 123.671C132.668 127.736 132.56 126.598 132.641 127.275C131.37 127.741 130.066 128.108 128.739 128.373C127.858 128.563 128.481 128.834 128.508 128.834ZM132.79 138.21C131.785 138.749 130.676 139.068 129.538 139.145C129.481 139.145 129.425 139.168 129.385 139.209C129.344 139.249 129.321 139.305 129.321 139.362C129.321 139.42 129.344 139.475 129.385 139.515C129.425 139.556 129.481 139.579 129.538 139.579C130.175 139.808 130.855 139.89 131.528 139.82C132.2 139.75 132.849 139.529 133.424 139.173C134 138.818 134.488 138.337 134.852 137.767C135.216 137.196 135.447 136.551 135.527 135.88C135.534 135.852 135.536 135.823 135.532 135.795C135.528 135.767 135.519 135.74 135.504 135.715C135.49 135.691 135.47 135.669 135.448 135.652C135.425 135.635 135.399 135.623 135.371 135.615C135.344 135.608 135.315 135.607 135.287 135.611C135.259 135.615 135.232 135.624 135.207 135.639C135.182 135.653 135.161 135.672 135.144 135.695C135.127 135.718 135.114 135.744 135.107 135.771C134.559 136.771 133.76 137.611 132.79 138.21ZM72.059 33.7127C75.5414 45.3521 87.8583 44.783 89.2946 45.6502C89.2946 45.7857 92.113 56.6393 93.2512 58.1298C93.8881 58.9563 95.4192 58.6311 96.4355 58.4414C98.8203 57.9672 101.584 57.8181 103.603 56.2057C104.118 55.7856 103.82 54.0783 103.685 53.4957C103.253 51.0593 102.656 48.6553 101.896 46.3006C101.597 45.5902 101.344 44.8616 101.137 44.1191C102.072 43.2908 103.089 42.5598 104.173 41.9375C105.96 40.7196 107.551 39.2344 108.888 37.5338C111.475 33.7435 112.645 29.163 112.191 24.5963C111.738 20.0297 109.69 15.7686 106.408 12.5611C96.3677 2.71029 78.2107 5.92164 72.3165 18.347C70.2975 22.6559 70.6905 29.187 72.059 33.7127ZM102.98 55.5553C101.178 57.0051 98.5222 57.1948 96.2051 57.6691C95.5818 57.8046 94.1049 58.1704 93.7119 57.6691C92.9452 56.5624 92.3936 55.3213 92.0859 54.0106C95.5958 53.5159 99.0288 52.578 102.303 51.2193C102.746 52.6222 102.974 54.0841 102.98 55.5553ZM102.154 50.6637C98.6913 51.309 95.2912 52.252 91.9911 53.4821C91.6411 51.9095 91.1885 50.3615 90.6361 48.848C94.1369 48.4814 97.5703 47.6333 100.839 46.3277C101.386 47.7601 101.839 49.2266 102.194 50.7179L102.154 50.6637ZM73.1701 18.767C78.8476 7.03274 96.2051 4.06529 105.69 13.347C108.773 16.3708 110.702 20.3774 111.142 24.6731C111.582 28.9688 110.507 33.2833 108.102 36.8698C105.758 40.176 101.015 42.4524 100.284 43.6448C100.026 44.0649 100.5 45.1353 100.799 45.8941C99.2539 46.1922 97.5601 46.5581 96.0425 46.8968C95.636 45.0405 93.739 37.5473 93.0344 35.7858C92.7634 35.0812 92.5195 35.1354 91.8014 35.3387C87.8448 35.3387 83.4952 34.336 82.0996 30.6097C81.931 30.1729 81.8128 29.7183 81.7473 29.2547C81.5576 27.3035 83.1023 25.0271 84.8096 25.1897C84.5657 26.6802 84.8096 29.5257 86.0833 30.3794C87.357 31.233 88.7933 29.878 88.7933 28.6585C88.721 27.7791 88.4352 26.9307 87.9605 26.1868C87.4859 25.443 86.8368 24.8263 86.0697 24.3903C86.2827 23.9066 86.5984 23.4749 86.9948 23.1253C87.3913 22.7758 87.859 22.5166 88.3656 22.3658C88.8721 22.2149 89.4055 22.1761 89.9286 22.2519C90.4516 22.3278 90.952 22.5165 91.3949 22.8049C90.3244 24.8916 91.3949 29.6748 93.2919 28.5501C95.1889 27.4255 94.5656 24.6613 93.3867 23.1301C92.8176 22.3849 92.6957 22.5881 92.9802 22.3713C95.1889 20.7589 97.6956 22.6288 98.7525 25.0813C100.27 28.4553 97.0181 32.6151 94.9585 33.8753C94.9082 33.9058 94.8721 33.9551 94.8581 34.0123C94.8441 34.0695 94.8535 34.1299 94.884 34.1802C94.9145 34.2305 94.9638 34.2666 95.021 34.2806C95.0782 34.2945 95.1386 34.2852 95.1889 34.2547C97.7092 32.7777 100.893 28.4282 99.4436 24.7697C97.9937 21.1112 94.3488 19.702 92.0453 21.8835C91.4653 21.4856 90.8033 21.2228 90.1083 21.1146C89.4133 21.0064 88.7028 21.0556 88.0293 21.2584C87.3557 21.4612 86.7363 21.8126 86.2166 22.2866C85.6969 22.7607 85.2901 23.3453 85.0264 23.9973C82.5061 23.6721 80.3787 26.6125 80.6633 29.2818C80.8163 30.4616 81.2623 31.5844 81.9605 32.5476C82.6587 33.5109 83.5869 34.2841 84.6605 34.7967C85.9342 35.4064 90.4599 36.5175 92.2485 36.0026C92.8718 37.3576 95.1347 45.3115 95.5412 46.9781C89.525 48.3331 90.7445 48.97 90.4464 48.0892C90.0941 46.9917 89.8773 45.3792 89.5792 45.2708C82.0996 43.5771 75.3517 42.3305 72.8314 33.4552C71.5983 29.1599 71.2731 22.7914 73.1701 18.767ZM85.7445 25.4607C86.258 25.8251 86.6871 26.2955 87.0027 26.8403C87.3183 27.385 87.5131 27.9913 87.5738 28.6179C87.5738 28.9837 86.7472 29.9729 86.2188 28.8889C85.8142 27.7944 85.6704 26.6206 85.7987 25.4607H85.7445ZM92.1401 23.3876C93.2241 24.4445 93.9016 26.9106 92.7228 27.6287C92.3141 27.0106 92.0496 26.3086 91.9488 25.5745C91.8479 24.8404 91.9133 24.093 92.1401 23.3876ZM51.4901 75.1079C57.005 73.3871 63.6851 74.8776 66.2596 80.9751C70.7176 91.3002 58.9291 96.5576 59.051 97.0996C59.322 98.4546 59.8098 100.826 60.0131 102.194C60.0292 102.309 60.0904 102.413 60.1832 102.483C60.2759 102.553 60.3926 102.583 60.5076 102.567C60.6226 102.551 60.7265 102.49 60.7964 102.397C60.8663 102.304 60.8964 102.187 60.8803 102.072C60.7177 100.717 60.5415 98.7662 60.3518 97.357C62.2676 96.5885 64.0404 95.5029 65.5957 94.1457C75.162 82.8585 64.4846 68.6175 50.8397 73.0754C48.6791 73.7054 46.7682 74.9923 45.3721 76.7575C43.9759 78.5227 43.1639 80.6787 43.0485 82.9263C42.6149 88.265 46.8696 92.872 53.7394 92.2758C53.843 92.2575 53.9368 92.2034 54.0044 92.1229C54.072 92.0423 54.109 91.9406 54.109 91.8354C54.109 91.7303 54.072 91.6285 54.0044 91.5479C53.9368 91.4674 53.843 91.4133 53.7394 91.395C47.6419 91.7067 44.3764 87.33 44.959 83.1295C45.094 81.2842 45.793 79.5249 46.9612 78.0901C48.1294 76.6553 49.7105 75.6142 51.4901 75.1079ZM152.695 39.756C152.81 39.7865 152.932 39.7701 153.035 39.7104C153.138 39.6507 153.213 39.5526 153.244 39.4376C153.274 39.3226 153.258 39.2001 153.198 39.0972C153.139 38.9943 153.04 38.9193 152.925 38.8888C147.058 37.2357 145.365 32.046 147.262 28.2385C148 26.538 149.244 25.1058 150.825 24.1362C152.405 23.1667 154.245 22.7066 156.096 22.8185C166.286 23.0759 170.757 32.4525 166.936 39.1462C164.402 43.7261 161.015 44.9592 156.679 45.5283C156.542 45.5475 156.415 45.6108 156.317 45.7086C156.219 45.8064 156.156 45.9333 156.137 46.0703C155.988 47.3169 155.663 49.7694 155.419 51.1922C155.395 51.3054 155.418 51.4232 155.481 51.5198C155.545 51.6164 155.644 51.6837 155.757 51.7071C155.871 51.7304 155.988 51.7079 156.085 51.6443C156.182 51.5808 156.249 51.4815 156.272 51.3683C156.584 49.9049 157.004 48.1841 157.289 46.7342C159.347 46.6235 161.372 46.1654 163.278 45.3792C167.871 42.6692 170.662 38.3874 170.297 32.9674C169.443 20.244 150.879 15.6912 145.541 27.5474C143.468 32.3712 145.988 38.2384 152.695 39.756ZM227.979 103.333C227.824 100.821 226.928 98.4116 225.404 96.4085C223.939 94.7596 222.151 93.4281 220.152 92.496C218.153 91.5639 215.984 91.0509 213.778 90.9885C211.534 90.8845 209.312 91.4806 207.421 92.6943C205.53 93.9081 204.063 95.6795 203.223 97.7635C201.096 102.682 203.657 108.414 210.337 110.04C210.396 110.067 210.461 110.08 210.526 110.079C210.592 110.078 210.656 110.063 210.715 110.035C210.773 110.006 210.825 109.966 210.867 109.915C210.908 109.864 210.938 109.805 210.954 109.742C210.97 109.679 210.972 109.613 210.96 109.549C210.947 109.485 210.921 109.424 210.883 109.371C210.845 109.318 210.796 109.274 210.739 109.242C210.682 109.21 210.619 109.191 210.554 109.186C204.727 107.425 202.993 102.411 204.903 98.5359C205.642 96.8354 206.886 95.4032 208.466 94.4336C210.047 93.4641 211.887 93.004 213.738 93.1159C215.617 93.1681 217.466 93.6009 219.173 94.3881C220.88 95.1753 222.41 96.3005 223.67 97.6958C224.939 99.3523 225.693 101.346 225.838 103.427C226.8 115.379 213.928 115.419 213.806 116.368C213.643 117.723 213.345 120.107 213.087 121.49C213.064 121.603 213.087 121.721 213.15 121.817C213.214 121.914 213.313 121.981 213.426 122.004C213.539 122.028 213.657 122.005 213.754 121.942C213.85 121.878 213.918 121.779 213.941 121.666C214.266 120.216 214.673 118.481 214.957 117.032C217.019 116.916 219.048 116.458 220.96 115.677C225.486 113.021 228.345 108.807 227.979 103.333ZM66.0428 112.465C66.6255 110.053 64.8775 107.52 63.1431 107.723C62.0183 107.601 60.8855 107.569 59.7556 107.628C56.8153 108.333 55.4332 112.181 58.1974 114.064C61.3681 116.178 65.4737 114.715 66.0428 112.465ZM63.9426 112.194C63.4614 112.596 62.872 112.846 62.2488 112.912C58.5632 113.427 57.7773 110.202 60.257 109.146L63.1702 108.604C64.4304 108.712 64.7149 111.408 63.9426 112.127V112.194ZM154.294 56.3683C151.137 55.2165 147.722 58.7802 149.958 61.7883C152.194 64.7964 156.625 64.7964 157.898 62.791C159.172 60.7856 158.4 57.7504 156.692 57.371C156.543 57.3032 155.364 56.7612 154.294 56.3683ZM156.001 61.7883C155.395 61.9946 154.746 62.0406 154.117 61.9219C153.488 61.8032 152.9 61.5237 152.411 61.1108C152.01 60.8233 151.681 60.4478 151.448 60.0132C151.056 58.9157 152.465 57.791 153.495 57.7233L156.421 58.1433C157.56 58.7531 156.99 61.4089 156.001 61.8289V61.7883ZM214.32 127.75C214.049 127.628 212.654 127.045 211.936 126.774C208.765 125.622 205.364 129.186 207.6 132.194C209.835 135.202 214.253 135.202 215.54 133.197C216.827 131.191 216.041 128.129 214.32 127.75ZM213.629 132.235C213.023 132.44 212.374 132.485 211.745 132.366C211.116 132.248 210.529 131.969 210.039 131.557C209.642 131.26 209.314 130.881 209.077 130.446C208.697 129.362 210.093 128.237 211.123 128.17L214.049 128.59C215.188 129.159 214.619 131.801 213.629 132.235Z" fill="#AA4A41"/>
<path fill-rule="evenodd" clip-rule="evenodd" d="M203.25 202.491C200.54 189.158 189.998 168.616 177.343 163.373L174.795 158.047C174.777 158.009 174.751 157.975 174.718 157.947C174.686 157.919 174.647 157.899 174.606 157.888C174.565 157.876 174.522 157.873 174.48 157.88C174.438 157.887 174.397 157.902 174.362 157.926L171.652 159.673C170.791 153.922 168.163 148.581 164.131 144.389C166.95 140.04 171.462 138.712 176.123 138.508C179.985 138.346 182.83 138.115 185.066 134.809C189.497 128.278 188.454 121.91 183.25 115.839C175.324 106.598 172.207 109.362 168.345 104.254C161.001 94.6606 159.335 80.4737 148.522 73.089C134.701 63.7259 127.248 71.2733 124.349 73.6039C120.107 71.0294 110.65 71.9237 106.585 75.406C103.129 78.3599 98.5494 82.181 96.7744 86.4493C92.9939 95.46 93.4004 106.124 87.872 114.295C86.517 116.327 84.2 117.696 82.5604 119.62C80.31 122.441 78.3956 125.515 76.8559 128.779C74.8505 132.573 73.3193 136.788 75.1486 140.717C77.6011 145.974 83.0889 150.988 88.9425 150.609C92.33 150.378 96.815 148.346 99.9993 149.687C101.896 150.473 102.628 152.302 104.064 153.833C107.316 157.451 114.904 158.549 119.105 156.042C114.484 161.923 107.438 161.72 95.1484 168.495C76.2868 178.874 69.4034 190.662 67.3844 202.735C66.6121 206.492 66.0422 210.286 65.6771 214.104C64.5118 233.792 70.4874 258.751 89.8639 262.884C95.1755 264.022 101.259 264.754 106.517 263.439C116.476 260.96 128.359 254.252 137.086 248.805C141.151 246.272 156.191 236.123 163.183 234.795C163.604 238.411 164.515 241.953 165.893 245.323C171.489 256.827 180.446 263.629 192.993 260.675C201.123 258.765 203.44 250.106 203.657 241.814C207.735 233.06 204.497 208.86 203.25 202.491ZM156.367 139.05C158.779 139.498 160.432 141.76 162.221 143.603C166.95 148.332 170.202 153.4 171.177 159.863C167.261 162.356 164.714 163.928 164.66 164.009C164.606 164.091 162.722 159.294 161.584 158.711C159.881 157.866 158.337 156.734 157.018 155.365C156.001 154.24 154.755 152.262 154.917 150.771C155.638 150.388 156.424 150.144 157.234 150.053V149.213C153.048 149.335 151.611 153.156 151.232 154.01C150.961 154.619 150.581 155.229 149.714 155.134C148.847 155.039 148.535 154.037 148.861 153.142C149.186 152.248 149.972 148.319 155.514 147.465C155.583 147.455 155.65 147.432 155.71 147.396C155.771 147.361 155.823 147.313 155.865 147.257C155.908 147.201 155.938 147.138 155.956 147.07C155.973 147.002 155.977 146.931 155.968 146.862C155.958 146.793 155.934 146.726 155.899 146.665C155.863 146.605 155.816 146.552 155.76 146.51C155.704 146.468 155.64 146.437 155.572 146.42C155.505 146.402 155.434 146.398 155.365 146.408C154.205 146.556 153.08 146.909 152.045 147.451C151.114 147.906 150.287 148.549 149.618 149.34C148.949 150.13 148.451 151.052 148.156 152.045C147.506 153.901 145.229 153.075 145.771 151.476C146.317 149.92 147.128 148.472 148.17 147.194C149.326 146.091 150.715 145.263 152.235 144.768C153.427 144.281 154.443 144.511 154.714 144.118C154.985 143.725 154.348 142.411 154.023 142.018C152.275 139.931 147.248 141.733 145.324 139.403C144.091 137.872 146.679 137.817 147.722 137.682C150.649 137.357 153.427 138.495 156.367 139.05ZM161.34 172.627C157.467 173.89 153.515 174.899 149.511 175.649C150.866 167.939 151.787 161.327 151.652 158.928C154.809 159.538 158.427 159.972 162.383 160.622C163.454 162.397 164.037 163.888 164.294 164.308L161.665 165.974C161.53 166.15 161.557 165.419 161.34 172.627ZM146.625 211.773C147.225 214.375 147.65 217.014 147.899 219.673C142.343 219.321 138.102 219.388 136.015 219.307C136.096 215.499 136.137 214.321 136.205 213.521C139.625 212.654 143.11 212.07 146.625 211.773ZM125.311 178.4C132.998 178.454 140.674 177.829 148.251 176.53C145.839 189.538 142.167 205.174 140.432 208.304C136.449 197.437 136.855 197.397 125.311 178.4ZM141.571 208.128C143.766 203.21 147.099 188.535 149.321 176.313C153.366 175.555 157.354 174.523 161.259 173.223C160.839 187.857 160.717 206.123 161.598 220.798C159.023 220.567 155.283 220.242 151.652 219.957C151.422 217.762 150.514 210.12 149.741 208.115C149.538 207.573 149.294 207.356 148.386 207.329C146.12 207.428 143.865 207.695 141.638 208.128H141.571ZM146.408 156.435C145.036 155.633 143.939 154.433 143.264 152.993C143.892 153.258 144.546 153.453 145.216 153.576C145.47 153.862 145.797 154.073 146.163 154.185C146.529 154.297 146.918 154.307 147.289 154.213C147.899 154.023 147.506 153.942 147.831 154.795C147.956 155.139 148.166 155.446 148.442 155.686C148.718 155.926 149.051 156.092 149.409 156.168C149.767 156.244 150.138 156.227 150.488 156.12C150.838 156.012 151.154 155.818 151.408 155.554C151.936 155.08 151.977 154.511 152.614 153.291C153.237 153.169 153.847 153.007 154.443 152.831C156.056 157.058 161.11 159.104 161.462 159.416C155.514 158.535 150.243 157.98 146.476 156.435H146.408ZM120.433 154.809C123.685 151.042 123.021 148.346 119.674 145.676C112.899 140.365 113.739 141.787 110.893 135.853C107.547 126.219 110.433 111.043 112.912 101.165C113.59 98.4546 118.21 95.5549 121.571 95.9885C126.232 96.5847 124.281 99.0372 128.265 100.433C128.956 100.635 129.672 100.744 130.392 100.758C130.435 100.771 130.48 100.776 130.524 100.772C130.569 100.768 130.612 100.755 130.652 100.735C130.691 100.714 130.726 100.686 130.755 100.651C130.784 100.617 130.805 100.577 130.819 100.535C130.832 100.492 130.837 100.447 130.833 100.402C130.829 100.358 130.816 100.314 130.795 100.275C130.775 100.235 130.746 100.2 130.712 100.171C130.678 100.143 130.638 100.121 130.595 100.108C128.482 98.8401 126.534 97.3154 124.796 95.5684C125.622 92.1945 127.723 90.3517 131.666 90.3246C134.376 90.3246 136.517 92.3842 138.441 94.1457C140.771 96.273 143.278 102.018 143.088 105.175C142.66 108.834 143.517 112.527 145.514 115.622C146.869 117.98 149.416 120.026 150.934 122.018C151.774 123.129 151.286 128.088 150.798 130.27C150.161 132.181 148.806 135.825 148.495 136.652C142.831 136.855 143.075 139.89 145.785 141.191C143.251 144.226 137.059 147.6 141.489 151.855C142.438 153.847 143.955 156.571 145.988 157.397C147.43 157.982 148.922 158.435 150.446 158.752C150.744 160.852 149.768 167.803 148.278 175.893C140.501 177.187 132.624 177.781 124.742 177.668C119.85 169.66 114.986 162.072 113.753 160.852C116.49 159.461 118.816 157.377 120.5 154.809H120.433ZM111.192 161.95C113.902 160.934 112.547 161.11 113.197 161.611C113.847 162.112 118.319 169.199 123.509 177.614C117.357 177.519 110.433 177.058 107.818 176.76C108.604 176.137 106.571 165.432 105.785 164.077C107.75 163.291 109.566 162.6 111.259 161.95H111.192ZM104.782 164.497C105.897 168.487 106.654 172.568 107.045 176.692C101.199 175.854 95.4632 174.368 89.9452 172.261C94.6736 169.237 99.6616 166.639 104.85 164.497H104.782ZM106.015 262.464C100.934 263.737 94.9858 262.992 89.8639 261.895C81.8558 260.174 76.3139 254.822 72.7096 247.965C66.9779 237.125 65.2706 221.014 67.0186 209.727C67.3709 207.464 67.818 205.229 68.1974 202.952C70.3519 190.039 78.1973 180.31 89.1457 172.952C99.8909 176.896 107.113 178.278 123.996 178.372C135.69 197.342 135.947 199.239 139.294 208.521C138.264 208.711 133.495 209.673 132.682 210.337C132.357 210.594 132.357 211.109 132.682 219.253C120.351 219.497 108.292 221.421 96.9505 228.738C95.5955 218.968 97.1538 216.014 100.311 210.418C105.27 201.624 104.376 199.998 101.246 194.998C100.73 194.323 100.361 193.548 100.162 192.722C100.162 192.397 98.8069 191.95 100.717 195.31C103.427 200.242 104.159 201.407 99.3624 209.876C95.853 216.082 94.4167 219.266 96.5305 229.022C95.582 229.659 94.498 230.377 93.4546 231.217C91.8606 232.34 90.3647 233.595 88.9831 234.971C88.9562 235.023 88.951 235.084 88.9688 235.14C88.9866 235.195 89.0259 235.242 89.078 235.269C89.1301 235.296 89.1907 235.301 89.2467 235.283C89.3026 235.265 89.3491 235.226 89.3761 235.174C89.7961 234.429 96.8015 229.754 98.6849 228.792C109.2 223.494 120.826 218.914 139.863 220.174C139.624 228.23 140.457 236.282 142.343 244.117C132.56 250.296 118.658 259.32 106.083 262.464H106.015ZM143.183 243.575C141.442 235.934 140.673 228.103 140.893 220.269C161.462 221.624 155.012 221.19 161.652 221.624C161.896 225.581 162.262 229.876 162.804 233.819C157.492 234.808 147.939 240.635 143.251 243.575H143.183ZM192.424 259.7C180.459 262.532 171.963 256 166.57 244.944C160.608 232.749 161.598 179.782 161.936 166.286L174.321 158.617C191.042 194.727 193.047 198.142 196.8 210.107C201.651 225.35 208.047 256.095 192.492 259.7H192.424ZM203.345 238.968C203.031 231.712 201.913 224.514 200.012 217.505C195.716 200.798 191.069 192.424 178.21 165.392L178.589 165.188C189.944 171.259 199.565 190.107 202.085 202.695C203.467 209.266 206.109 230.757 203.413 238.968H203.345Z" fill="#AA4A41"/>
</svg>
