<svg width="50" height="50" viewBox="0 0 50 50" fill="none" xmlns="http://www.w3.org/2000/svg">
<path d="M11.2689 13.8374C16.0814 13.6104 20.8918 13.3749 25.7064 13.2041C27.9418 13.1249 30.1772 13.0562 32.4127 13.027C34.5481 12.9999 36.8606 12.7208 38.8668 13.6229C45.7481 16.7208 42.846 29.1687 38.0897 32.8645C34.7752 35.4395 29.4752 35.6312 25.4522 35.527C21.7189 35.4333 17.2147 35.0062 14.0731 32.7687C8.6585 28.9124 11.4877 18.4041 11.3106 11.2187C11.4168 7.19786 7.05225 6.54578 7.05225 6.54578" stroke="#FF6F61" stroke-width="4" stroke-linecap="round" stroke-linejoin="round"/>
<path d="M26.8439 21.1291H32.621" stroke="#FF6F61" stroke-width="1.5" stroke-linecap="round" stroke-linejoin="round"/>
<path fill-rule="evenodd" clip-rule="evenodd" d="M14.894 41.1853C15.519 41.1853 16.0273 41.6936 16.0273 42.3186C16.0273 42.9457 15.519 43.454 14.894 43.454C14.2669 43.454 13.7585 42.9457 13.7585 42.3186C13.7585 41.6936 14.2669 41.1853 14.894 41.1853Z" fill="#FF6F61"/>
<path fill-rule="evenodd" clip-rule="evenodd" d="M14.894 41.1853C15.519 41.1853 16.0273 41.6936 16.0273 42.3186C16.0273 42.9457 15.519 43.454 14.894 43.454C14.2669 43.454 13.7585 42.9457 13.7585 42.3186C13.7585 41.6936 14.2669 41.1853 14.894 41.1853Z" stroke="#FF6F61" stroke-width="4" stroke-linecap="round" stroke-linejoin="round"/>
<path fill-rule="evenodd" clip-rule="evenodd" d="M36.4167 41.1853C37.0437 41.1853 37.5521 41.6936 37.5521 42.3186C37.5521 42.9457 37.0437 43.454 36.4167 43.454C35.7917 43.454 35.2833 42.9457 35.2833 42.3186C35.2833 41.6936 35.7917 41.1853 36.4167 41.1853Z" fill="#FF6F61"/>
<path fill-rule="evenodd" clip-rule="evenodd" d="M36.4167 41.1853C37.0437 41.1853 37.5521 41.6936 37.5521 42.3186C37.5521 42.9457 37.0437 43.454 36.4167 43.454C35.7917 43.454 35.2833 42.9457 35.2833 42.3186C35.2833 41.6936 35.7917 41.1853 36.4167 41.1853Z" stroke="#FF6F61" stroke-width="4" stroke-linecap="round" stroke-linejoin="round"/>
</svg>
